<svg version="1.1" id="Layer_1" xmlns="http://www.w3.org/2000/svg" xmlns:xlink="http://www.w3.org/1999/xlink" x="0px" y="0px"
	 width="100%" viewBox="0 0 1216 932" enable-background="new 0 0 1216 932" xml:space="preserve">
<path fill="#FFFFFF" opacity="1.000000" stroke="none" 
	d="
M821.000000,933.000000 
	C547.365051,933.000000 274.230133,933.000000 1.047601,933.000000 
	C1.047601,622.401184 1.047601,311.802307 1.047601,1.000000 
	C203.575256,1.000000 406.150574,1.000000 608.725891,1.000000 
	C811.369019,1.000000 1014.012146,1.000000 1216.827637,1.000000 
	C1216.827637,311.666595 1216.827637,622.333313 1216.827637,933.000000 
	C1085.135376,933.000000 953.317688,933.000000 821.000000,933.000000 
M531.047729,244.327744 
	C530.786011,244.042816 530.524292,243.757889 530.224365,243.156387 
	C530.224365,243.156387 529.960632,242.977173 529.840820,242.316269 
	C528.477661,241.131775 527.226440,239.778305 525.733582,238.789688 
	C514.450684,231.317703 493.722656,235.972397 489.310333,254.142319 
	C487.244293,262.650421 485.784393,271.305695 484.030853,279.987976 
	C481.895691,279.987976 479.445190,279.987976 476.374573,279.768921 
	C475.727814,279.806702 475.081085,279.844482 473.690765,279.431946 
	C470.317871,279.207001 466.943390,278.832031 463.573181,278.866913 
	C462.772308,278.875183 461.985657,280.255676 461.076294,281.931793 
	C461.123901,286.967407 461.171539,292.002991 461.071991,297.671814 
	C461.120636,298.099640 461.169281,298.527466 461.072235,299.887909 
	C461.140259,319.258179 461.208282,338.628479 461.111847,358.923065 
	C461.101868,361.409790 461.082947,363.896515 461.083374,366.383240 
	C461.086792,386.271790 461.093842,406.160309 460.252289,426.028656 
	C454.632507,427.364532 448.957855,428.505585 443.402710,430.070862 
	C422.224335,436.038361 401.081177,442.130981 379.941559,448.234741 
	C379.008362,448.504242 378.239349,449.342377 377.127045,450.096527 
	C385.756348,451.785492 393.785645,453.540039 401.880341,454.907166 
	C426.658539,459.092133 451.498230,462.921844 476.245636,467.278015 
	C503.117950,472.008179 529.921387,477.132599 556.740417,482.162079 
	C582.416138,486.977142 608.060425,491.960327 633.748779,496.706207 
	C639.241333,497.720947 644.863647,498.032715 650.726868,498.777466 
	C650.726868,498.777466 650.984680,498.972504 651.199036,499.481232 
	C651.524902,499.626099 651.850708,499.770966 653.025330,499.875549 
	C654.833435,500.046844 656.680969,500.036224 658.443420,500.418091 
	C673.188232,503.612366 687.889771,507.014496 702.670837,510.027679 
	C706.357056,510.779144 710.284790,510.345886 714.587708,510.346741 
	C714.587708,510.346741 715.008179,510.078613 715.627869,510.083710 
	C716.116150,509.741913 716.604431,509.400116 717.809998,508.912994 
	C744.138306,497.908081 770.466675,486.903198 796.420288,476.054901 
	C796.420288,468.864594 796.739075,461.723602 796.357788,454.620178 
	C795.395203,436.688416 794.114502,418.773773 792.966797,400.851898 
	C792.031616,386.248199 791.104370,371.643982 790.498291,356.439697 
	C789.686646,353.910431 792.218201,350.291687 787.587524,348.811218 
	C787.587524,348.811218 787.148987,348.885345 786.711731,348.668884 
	C786.088867,348.739105 785.465942,348.809326 784.076965,348.784698 
	C782.791992,348.804810 781.507080,348.824921 779.518738,348.508179 
	C775.079895,347.833069 777.916077,344.050079 776.817749,341.071747 
	C776.553772,337.778351 776.289856,334.484924 776.425110,330.576599 
	C775.957397,329.389099 775.489746,328.201569 775.060974,326.260681 
	C774.819336,318.034119 773.543823,310.082428 768.848450,302.352356 
	C762.458069,294.567322 751.284180,293.881989 743.250488,301.084961 
	C736.117920,308.112701 734.900085,317.428131 733.918396,326.608307 
	C733.258240,332.781494 733.792664,339.082458 733.792664,345.508026 
	C730.022278,345.689453 727.266663,345.822083 723.572266,345.550568 
	C721.892822,345.634186 720.213440,345.717834 718.484985,345.646820 
	C718.484985,345.646820 718.471008,345.809143 717.504395,345.532257 
	C716.509460,345.605133 715.514526,345.677979 714.501099,345.599030 
	C714.501099,345.599030 714.395874,345.709991 713.621094,345.269592 
	C713.340698,345.171478 713.060303,345.073395 712.663269,344.082672 
	C711.723511,334.706451 710.783752,325.330261 710.064392,315.302490 
	C709.977112,313.499481 709.889832,311.696503 709.536560,308.874634 
	C708.991028,293.166138 708.445496,277.457672 707.871460,260.930359 
	C702.470520,260.930359 697.690979,260.930359 692.955383,260.027863 
	C692.987488,252.257599 693.356995,244.470764 692.976135,236.720795 
	C692.332581,223.624725 690.193115,210.788666 684.398438,198.583496 
	C684.339355,198.336349 684.184387,198.234009 683.914978,198.057297 
	C683.914978,198.057297 683.695007,198.054337 683.484619,197.460724 
	C682.583191,196.384216 681.681763,195.307724 680.516479,193.845673 
	C680.297974,193.623520 680.085327,193.395950 679.676331,192.502579 
	C676.805115,191.491287 673.819031,189.396271 671.085632,189.685791 
	C664.647766,190.367676 659.227966,193.520798 655.500671,199.877823 
	C652.948181,208.036575 649.445129,216.039551 648.076355,224.392288 
	C646.236267,235.620621 646.043579,247.118927 645.144836,258.488190 
	C639.330811,258.488190 633.076721,258.549286 626.827942,258.396149 
	C626.184387,258.380402 625.572144,257.085876 625.054749,255.385254 
	C624.645630,241.543579 623.376221,227.853149 618.175415,214.378555 
	C616.734802,210.142944 615.484497,205.746689 610.041260,204.863373 
	C610.041260,204.863373 610.074951,204.937531 610.055420,204.300552 
	C609.326782,203.882141 608.598145,203.463730 607.421448,202.509781 
	C603.656006,202.915146 599.890503,203.320511 595.510315,203.853241 
	C588.738953,207.224442 585.554749,213.418579 582.017883,219.990799 
	C577.656189,219.154709 575.477722,221.637772 574.489258,225.331741 
	C573.773682,228.006027 573.614014,230.829010 572.900330,234.102890 
	C568.467041,241.058212 564.010010,248.004105 562.839844,256.720306 
	C560.918884,256.466919 558.997864,256.213501 556.795898,255.923004 
	C556.795898,264.593781 556.795898,272.872406 555.888916,281.089783 
	C550.304871,281.033447 544.720764,280.977112 538.855896,280.055145 
	C538.620605,268.683411 536.515015,257.677094 532.463806,246.513062 
	C532.015869,245.970795 531.567871,245.428528 530.998108,244.925613 
	C530.998108,244.925613 531.125122,244.914566 531.047729,244.327744 
M569.958862,589.636597 
	C569.958862,589.636597 569.958008,589.565125 569.940369,588.693237 
	C569.940369,586.165833 569.940369,583.638428 569.940369,580.023499 
	C567.441528,580.751465 565.279541,581.381287 563.000244,582.932312 
	C563.140686,587.257446 563.281189,591.582642 563.244995,596.587280 
	C563.306458,597.047913 563.367981,597.508606 563.182861,598.880371 
	C563.182861,621.441223 563.182861,644.002136 563.182861,666.810059 
	C566.320312,666.671570 568.909058,666.557251 572.059448,666.418152 
	C572.059448,654.112488 572.059448,642.285034 572.059448,629.536438 
	C574.387207,631.045776 575.883301,631.988159 577.351501,632.972290 
	C589.174988,640.896545 605.916992,637.874878 613.713806,626.402222 
	C620.874756,615.865234 620.826172,600.067749 613.600525,589.562927 
	C606.989624,579.951782 595.153625,576.148071 584.653198,581.146301 
	C579.672668,583.517090 575.484253,587.552185 570.423279,590.193420 
	C570.284790,589.957581 570.146362,589.721741 569.958862,589.636597 
M666.960022,587.499939 
	C666.960022,603.587524 666.960022,619.675110 666.960022,636.038025 
	C678.786621,637.169312 690.154114,638.819519 701.448120,635.034546 
	C711.147278,631.783997 719.062988,621.491028 718.201294,611.487183 
	C717.408264,602.280029 713.670349,594.480469 702.919983,591.791626 
	C703.911621,590.156799 704.381653,588.624512 705.415527,587.794495 
	C715.680298,579.553101 711.092590,559.686890 695.924194,556.534546 
	C686.517578,554.579651 676.599976,555.083435 666.977234,554.487610 
	C666.977234,565.868896 666.977234,576.184448 666.960022,587.499939 
M365.631287,632.676636 
	C374.759888,634.219055 383.887421,636.895020 393.017548,636.903809 
	C399.061188,636.909668 406.216980,634.481445 410.940735,630.716309 
	C423.744293,620.511047 420.582489,601.901672 405.243927,594.782654 
	C396.664246,590.800537 387.516052,588.061829 378.761780,584.430725 
	C372.974457,582.030334 371.021179,576.456665 373.635956,570.762939 
	C376.160980,565.264771 381.176453,562.768127 386.641632,563.219543 
	C395.090546,563.917480 403.437286,565.852539 412.173981,567.321289 
	C414.879486,561.507996 414.254364,559.926758 407.501343,557.576355 
	C398.785797,554.542786 389.953827,553.986450 380.942932,556.048035 
	C370.307404,558.481201 364.271790,564.705261 363.676941,573.960938 
	C363.037933,583.903687 367.837891,590.756775 378.147827,594.700195 
	C384.979889,597.313416 392.027344,599.513672 398.521637,602.801025 
	C402.140686,604.632996 406.080353,607.744446 407.675476,611.273682 
	C411.268158,619.222595 407.079224,626.380005 398.428467,628.191711 
	C388.208771,630.331970 378.221375,629.464111 368.855835,624.340271 
	C367.203735,623.436401 365.440613,622.735413 363.146118,621.670288 
	C362.923950,626.017395 359.791809,629.833130 365.631287,632.676636 
M814.876770,607.482178 
	C810.952698,599.417786 807.069885,591.332703 803.052185,583.315247 
	C802.552002,582.317139 801.399231,581.083557 800.440979,580.982666 
	C797.531372,580.676086 794.568787,580.871643 791.582153,580.871643 
	C791.638062,581.689331 791.562500,582.040649 791.692566,582.280579 
	C799.205811,596.144409 806.361084,610.222229 814.417175,623.763977 
	C818.687988,630.942993 819.987427,637.025940 815.026733,644.400208 
	C809.876709,652.055847 805.401001,659.936218 794.279907,657.787415 
	C793.689209,666.252808 796.235168,668.360718 803.629272,665.947998 
	C804.879639,665.540039 806.058472,664.889465 807.234619,664.281860 
	C815.360046,660.084045 820.089722,652.824402 823.950623,645.018127 
	C831.686890,629.376038 839.135620,613.591553 846.674744,597.852234 
	C849.282837,592.407410 851.806580,586.922119 854.591736,580.979736 
	C851.427429,580.770508 848.943848,580.351746 846.512329,580.555054 
	C845.330505,580.653809 843.674561,581.657654 843.206726,582.692078 
	C839.032837,591.920776 835.088257,601.253113 831.050964,610.543945 
	C828.979187,615.311401 826.856201,620.056519 824.756348,624.811768 
	C824.272766,624.839355 823.789185,624.866882 823.305603,624.894470 
	C820.586670,619.321960 817.867737,613.749512 814.876770,607.482178 
M536.671570,596.977966 
	C536.671570,598.222351 536.671570,599.466675 536.671570,601.041382 
	C533.282288,601.041382 530.386536,600.631653 527.651978,601.121582 
	C520.666504,602.372986 513.358459,603.074768 506.907623,605.751404 
	C498.320831,609.314209 495.516388,619.007019 498.943817,628.296387 
	C501.602600,635.502502 508.980621,639.278320 517.872070,636.804199 
	C523.326782,635.286316 528.311218,632.086121 533.519897,629.669434 
	C534.512146,629.209045 536.002136,628.269531 536.494629,628.622498 
	C537.387024,629.262146 538.039917,630.661377 538.199768,631.825073 
	C538.960571,637.361755 539.336792,637.609619 545.230835,635.345093 
	C545.230835,622.449829 545.527710,609.466980 545.118347,596.506470 
	C544.877014,588.863770 540.581543,583.529907 533.268555,580.774414 
	C524.318909,577.402100 515.594849,579.199524 506.839569,581.631531 
	C502.034454,582.966309 500.932892,585.824158 502.945953,590.792542 
	C505.647980,589.771240 508.172058,588.608765 510.812714,587.854187 
	C524.357117,583.983643 532.868835,585.792297 536.671570,596.977966 
M446.961670,584.508301 
	C445.380951,586.256897 443.800232,588.005554 441.255890,590.820190 
	C440.997375,586.585571 440.830933,583.858887 440.654083,580.961426 
	C438.107025,580.961426 435.764496,580.961426 433.673065,580.961426 
	C433.673065,599.709961 433.673065,617.956848 433.673065,636.599792 
	C436.905975,636.427429 439.633606,636.282043 442.472778,636.130676 
	C442.472778,626.031128 442.924438,616.512390 442.356537,607.054810 
	C441.671936,595.654358 449.585083,589.486572 457.513824,586.823730 
	C465.342651,584.194641 472.374481,588.619568 473.650208,596.781555 
	C474.134521,599.879944 473.994049,603.087524 474.006287,606.245911 
	C474.044708,616.173950 474.020447,626.102234 474.020447,635.967224 
	C477.019897,635.967224 479.730865,635.967224 482.472443,635.967224 
	C482.472443,622.505432 482.668549,609.511597 482.403687,596.527283 
	C482.226685,587.850098 477.201141,581.835205 468.802704,579.524353 
	C460.990356,577.374817 454.059204,579.860840 446.961670,584.508301 
M741.016602,596.502563 
	C741.016602,591.365845 741.016602,586.229126 741.016602,580.827515 
	C737.684326,580.827515 734.657715,580.827515 731.586731,580.827515 
	C731.586731,587.259949 731.519897,593.236633 731.603760,599.211243 
	C731.706482,606.528625 731.643372,613.865906 732.183655,621.155090 
	C732.857971,630.254028 736.723694,634.927246 745.660522,636.647034 
	C754.607849,638.368713 763.239502,637.514587 769.739441,629.791931 
	C770.479553,628.912659 771.697998,628.435913 772.804382,627.699585 
	C775.275513,637.336182 775.275513,637.336182 780.772339,635.762939 
	C780.772339,617.614075 780.772339,599.365845 780.772339,580.742676 
	C777.763672,580.742676 774.702271,580.742676 771.709839,580.742676 
	C771.709839,591.328613 771.314148,601.627380 771.840576,611.878723 
	C772.230713,619.474731 768.648254,624.267883 762.738342,627.701599 
	C757.261963,630.883362 751.293091,631.229492 745.543213,628.254211 
	C740.464233,625.626038 740.948914,620.631287 740.944885,615.970398 
	C740.939514,609.814148 740.989075,603.657959 741.016602,596.502563 
z"/>
<path fill="#8EC73E" opacity="1.000000" stroke="none" 
	d="
M718.533997,345.801483 
	C720.213440,345.717834 721.892822,345.634186 724.293579,345.925171 
	C729.775696,346.479828 734.536560,346.659943 739.728027,346.772949 
	C743.437561,346.819580 746.716614,346.933319 750.300781,347.314362 
	C754.389404,347.535065 758.172852,347.488464 762.291260,347.403320 
	C763.071594,347.414185 763.517029,347.463531 764.117493,347.859924 
	C769.589111,348.419617 774.905579,348.632324 780.222107,348.845032 
	C781.507080,348.824921 782.791992,348.804810 784.842407,348.899963 
	C786.121582,348.971954 786.635254,348.928650 787.148987,348.885345 
	C787.148987,348.885345 787.587524,348.811218 788.004272,349.189484 
	C789.005249,352.058502 789.589417,354.549255 790.173584,357.040009 
	C791.104370,371.643982 792.031616,386.248199 792.966797,400.851898 
	C794.114502,418.773773 795.395203,436.688416 796.357788,454.620178 
	C796.739075,461.723602 796.420288,468.864594 796.420288,476.054901 
	C770.466675,486.903198 744.138306,497.908081 717.133423,508.969727 
	C715.973999,509.377197 715.491089,509.727905 715.008179,510.078613 
	C715.008179,510.078613 714.587708,510.346741 714.154419,510.049011 
	C712.308228,508.322113 708.456726,510.073883 708.989014,505.641541 
	C709.987244,452.119537 703.972656,399.092499 708.752563,345.799591 
	C709.941589,345.556244 711.360779,345.265778 712.779968,344.975281 
	C713.060303,345.073395 713.340698,345.171478 714.021606,345.484222 
	C714.422180,345.698853 714.519592,345.750824 714.519592,345.750824 
	C715.514526,345.677979 716.509460,345.605133 717.977539,345.646606 
	C718.450745,345.760986 718.533997,345.801483 718.533997,345.801483 
z"/>
<path fill="#02B4D0" opacity="1.000000" stroke="none" 
	d="
M624.945312,256.384766 
	C625.572144,257.085876 626.184387,258.380402 626.827942,258.396149 
	C633.076721,258.549286 639.330811,258.488190 645.144836,258.488190 
	C646.043579,247.118927 646.236267,235.620621 648.076355,224.392288 
	C649.445129,216.039551 652.948181,208.036575 655.671875,200.055496 
	C650.712402,212.266220 648.787048,224.847473 649.406311,237.862320 
	C649.121460,237.222214 648.836609,236.582123 648.428223,235.664337 
	C648.428223,239.910416 648.428223,243.721420 648.428223,247.532410 
	C648.698975,247.584717 648.969666,247.637039 649.240417,247.689362 
	C649.987366,246.123001 650.734253,244.556641 651.493652,243.456375 
	C651.833313,249.193573 652.160583,254.464676 652.561523,260.921722 
	C664.707336,260.921722 676.334045,260.921722 688.373657,260.950806 
	C690.161560,260.963348 691.536499,260.946869 692.911499,260.930359 
	C697.690979,260.930359 702.470520,260.930359 707.871460,260.930359 
	C708.445496,277.457672 708.991028,293.166138 709.455566,309.609314 
	C707.532227,313.290222 706.265137,311.865509 704.502197,310.021729 
	C698.883240,304.145142 687.950012,303.264618 682.752625,308.150543 
	C681.939087,308.790558 681.428223,309.356689 680.930176,309.957733 
	C680.942932,309.992645 680.964233,309.921478 680.676880,309.928131 
	C679.977356,310.304443 679.565125,310.674103 678.842773,311.171295 
	C672.184692,319.484924 669.806580,328.999878 669.397156,339.113251 
	C669.144165,345.361969 668.495178,345.861664 662.276855,344.575104 
	C658.261841,343.744385 654.168030,343.294189 649.059265,342.512878 
	C649.059265,387.065582 649.059265,430.932312 648.957458,474.930786 
	C648.855652,475.062561 648.808655,475.392242 648.460205,475.540619 
	C644.473267,477.521240 640.811401,479.308807 637.202637,481.197784 
	C633.284851,483.248535 629.416504,485.393616 625.131531,487.312988 
	C623.029968,486.626709 621.103638,486.462189 619.676331,485.532074 
	C618.127625,484.522858 614.757568,483.064667 619.399841,481.101318 
	C620.137329,480.527679 620.932983,479.854767 620.926758,479.189392 
	C620.673950,452.265320 620.515137,425.338623 619.974121,398.419708 
	C619.617554,380.680542 618.411011,362.957642 618.106628,345.218506 
	C617.769653,325.585510 617.949036,305.941772 618.070190,286.303772 
	C618.109985,279.848755 618.967346,273.391876 618.857605,266.945953 
	C618.807983,264.028931 619.277893,259.828827 614.466064,259.469055 
	C614.933350,259.060730 615.138794,258.920349 615.762695,258.848938 
	C617.027466,258.891815 617.873962,258.865723 618.774353,258.815857 
	C618.828308,258.792053 619.174072,258.781067 619.480835,258.524750 
	C620.024536,258.146606 620.261597,258.024780 620.847900,257.923492 
	C622.446594,257.424255 623.695984,256.904510 624.945312,256.384766 
z"/>
<path fill="#02B4D0" opacity="1.000000" stroke="none" 
	d="
M556.795898,281.151001 
	C556.795898,272.872406 556.795898,264.593781 556.795898,255.923004 
	C558.997864,256.213501 560.918884,256.466919 563.584717,256.722473 
	C566.137268,256.784302 567.945007,256.843964 570.047424,257.062988 
	C570.928711,257.548767 571.515259,257.875244 572.372498,258.435059 
	C576.406006,259.086609 580.168884,259.504761 584.347107,259.968475 
	C590.199036,260.969421 595.635620,261.924774 601.064575,263.345001 
	C600.379333,271.720612 599.283508,279.621460 599.095886,287.543793 
	C598.254517,323.083466 597.617432,358.628326 597.022461,394.173279 
	C596.794128,407.817535 596.874634,421.466919 596.461304,435.085419 
	C594.358154,435.906860 592.307068,436.418396 590.907837,437.662842 
	C582.972229,444.720276 575.247437,452.014343 567.329346,459.091858 
	C564.674622,461.464691 561.662720,463.437805 557.976807,466.227325 
	C557.976807,463.633148 557.977478,462.195740 557.976624,460.758331 
	C557.967285,444.612152 557.980835,428.465912 557.914917,412.319946 
	C557.907715,410.551056 557.442627,408.783966 557.130493,406.549805 
	C557.061340,399.420013 557.056274,392.756470 557.041016,386.092957 
	C556.960815,351.112305 556.877869,316.131653 556.795898,281.151001 
z"/>
<path fill="#F58D1A" opacity="1.000000" stroke="none" 
	d="
M461.219177,297.038605 
	C461.171539,292.002991 461.123901,286.967407 461.564240,281.466614 
	C466.179565,280.628357 470.306946,280.255310 474.434326,279.882233 
	C475.081085,279.844482 475.727814,279.806702 476.943054,280.163116 
	C482.053864,280.685699 486.596222,280.814087 491.592163,280.951599 
	C496.044006,281.023560 500.042206,281.086334 504.029510,281.607788 
	C503.682617,292.333618 502.924194,302.608276 503.106537,312.866211 
	C503.403717,329.583221 504.315155,346.289307 504.572998,363.093323 
	C503.785278,364.856750 503.092194,366.519562 503.051208,368.198303 
	C502.884857,375.011902 502.895264,381.830383 502.884003,388.647095 
	C502.864929,400.203369 502.878754,411.759705 502.878754,422.846130 
	C489.126465,431.616486 475.885376,440.060852 462.054108,448.881592 
	C462.463165,446.192657 462.923859,444.431427 462.970306,442.659363 
	C463.357147,427.901794 463.902374,413.142639 463.928467,398.383118 
	C463.950134,386.119507 463.334320,373.854797 463.000336,361.590576 
	C462.982269,360.925964 463.162262,360.156311 462.886444,359.623871 
	C462.551697,358.977570 461.830414,358.531464 461.276337,357.998749 
	C461.208282,338.628479 461.140259,319.258179 461.332703,299.271362 
	C461.468506,298.116089 461.343842,297.577362 461.219177,297.038605 
z"/>
<path fill="#F4901E" opacity="1.000000" stroke="none" 
	d="
M461.194092,358.460907 
	C461.830414,358.531464 462.551697,358.977570 462.886444,359.623871 
	C463.162262,360.156311 462.982269,360.925964 463.000336,361.590576 
	C463.334320,373.854797 463.950134,386.119507 463.928467,398.383118 
	C463.902374,413.142639 463.357147,427.901794 462.970306,442.659363 
	C462.923859,444.431427 462.463165,446.192657 462.054108,448.881592 
	C475.885376,440.060852 489.126465,431.616486 502.878754,422.846130 
	C502.878754,411.759705 502.864929,400.203369 502.884003,388.647095 
	C502.895264,381.830383 502.884857,375.011902 503.051208,368.198303 
	C503.092194,366.519562 503.785278,364.856750 504.584045,363.561890 
	C504.996490,380.596008 505.176117,397.257660 504.911224,413.912201 
	C504.825470,419.302917 505.844879,423.801941 509.328217,428.076324 
	C513.405334,433.079376 516.754272,438.668701 520.577454,443.887726 
	C525.112793,450.079041 529.816895,456.146759 534.447815,462.268036 
	C534.846802,462.130371 535.245728,461.992737 535.644653,461.855072 
	C534.770203,448.793823 533.270752,435.739166 533.133606,422.670166 
	C532.638184,375.466949 534.189514,328.224945 530.376099,281.029816 
	C531.549927,280.948456 532.338623,280.941406 533.556641,280.932434 
	C535.702820,280.927277 537.419739,280.924011 539.136719,280.920776 
	C544.720764,280.977112 550.304871,281.033447 556.342407,281.120392 
	C556.877869,316.131653 556.960815,351.112305 557.041016,386.092957 
	C557.056274,392.756470 557.061340,399.420013 557.047729,407.010437 
	C556.949829,425.002838 556.875305,442.068298 556.459412,459.226746 
	C550.523682,461.411865 544.964966,463.608551 539.315308,465.539154 
	C537.349304,466.210968 535.026123,466.852753 533.090759,466.444122 
	C510.359467,461.644318 487.679169,456.603516 464.960724,451.741455 
	C462.101105,451.129456 461.278656,449.809906 461.327209,446.963898 
	C461.446106,439.995544 461.199371,433.020935 461.099792,426.048859 
	C461.093842,406.160309 461.086792,386.271790 461.083374,366.383240 
	C461.082947,363.896515 461.101868,361.409790 461.194092,358.460907 
z"/>
<path fill="#E6E7E7" opacity="1.000000" stroke="none" 
	d="
M460.676025,426.038757 
	C461.199371,433.020935 461.446106,439.995544 461.327209,446.963898 
	C461.278656,449.809906 462.101105,451.129456 464.960724,451.741455 
	C487.679169,456.603516 510.359467,461.644318 533.090759,466.444122 
	C535.026123,466.852753 537.349304,466.210968 539.315308,465.539154 
	C544.964966,463.608551 550.523682,461.411865 556.519653,459.652405 
	C556.491638,464.673737 556.743958,468.924805 562.355042,470.623810 
	C579.679565,475.869598 596.941956,481.325073 614.315796,486.399963 
	C617.857361,487.434479 621.779785,487.165588 625.526611,487.497559 
	C629.416504,485.393616 633.284851,483.248535 637.202637,481.197784 
	C640.811401,479.308807 644.473267,477.521240 648.530823,475.916931 
	C649.247131,476.822083 649.544434,477.499268 649.829712,478.625244 
	C649.857727,482.686859 649.897827,486.299622 649.713989,490.207886 
	C649.802124,493.225037 650.114136,495.946716 650.426208,498.668365 
	C644.863647,498.032715 639.241333,497.720947 633.748779,496.706207 
	C608.060425,491.960327 582.416138,486.977142 556.740417,482.162079 
	C529.921387,477.132599 503.117950,472.008179 476.245636,467.278015 
	C451.498230,462.921844 426.658539,459.092133 401.880341,454.907166 
	C393.785645,453.540039 385.756348,451.785492 377.127045,450.096527 
	C378.239349,449.342377 379.008362,448.504242 379.941559,448.234741 
	C401.081177,442.130981 422.224335,436.038361 443.402710,430.070862 
	C448.957855,428.505585 454.632507,427.364532 460.676025,426.038757 
z"/>
<path fill="#7BA32D" opacity="1.000000" stroke="none" 
	d="
M712.721619,344.528992 
	C711.360779,345.265778 709.941589,345.556244 708.752563,345.799591 
	C703.972656,399.092499 709.987244,452.119537 708.634766,505.587952 
	C706.023254,502.643372 703.753418,499.289703 701.528381,495.906647 
	C696.308533,487.970184 691.110046,480.019653 686.086792,471.711426 
	C687.174805,463.490234 688.668640,455.647858 688.873840,447.771912 
	C689.513977,423.198730 689.617798,398.612061 690.039307,374.032471 
	C690.158569,367.081696 690.459290,360.118500 691.129517,353.204865 
	C691.276428,351.689911 693.099060,349.639496 694.600037,349.108948 
	C697.179871,348.196991 700.137817,348.413788 702.886963,347.892609 
	C703.968384,347.687622 704.915222,346.772980 706.276733,346.004028 
	C710.036133,344.012238 709.106140,340.934570 708.861572,338.078522 
	C708.629395,335.366852 708.331604,332.660767 708.080688,329.510986 
	C707.317566,324.200470 706.536255,319.331207 705.723389,314.265320 
	C707.159668,314.853912 708.501831,315.403961 709.843994,315.954041 
	C710.783752,325.330261 711.723511,334.706451 712.721619,344.528992 
z"/>
<path fill="#0B97BC" opacity="1.000000" stroke="none" 
	d="
M666.968628,587.000000 
	C666.977234,576.184448 666.977234,565.868896 666.977234,554.487610 
	C676.599976,555.083435 686.517578,554.579651 695.924194,556.534546 
	C711.092590,559.686890 715.680298,579.553101 705.415527,587.794495 
	C704.381653,588.624512 703.911621,590.156799 702.919983,591.791626 
	C713.670349,594.480469 717.408264,602.280029 718.201294,611.487183 
	C719.062988,621.491028 711.147278,631.783997 701.448120,635.034546 
	C690.154114,638.819519 678.786621,637.169312 666.960022,636.038025 
	C666.960022,619.675110 666.960022,603.587524 666.968628,587.000000 
M676.124817,607.544250 
	C676.097595,613.356506 676.094299,619.168945 676.030640,624.980835 
	C676.006958,627.145325 676.122986,629.012024 679.065796,628.943604 
	C683.876038,628.831726 688.733765,629.234863 693.490784,628.701416 
	C701.589417,627.793213 706.808899,622.042542 707.751709,613.805054 
	C708.702515,605.497803 705.661011,600.322205 697.523926,597.296814 
	C694.469666,596.161316 691.108521,595.320679 687.877075,595.285522 
	C674.592834,595.141174 676.366821,593.032288 676.124817,607.544250 
M679.778564,562.740601 
	C678.674744,563.630127 676.643860,564.488953 676.613159,565.414062 
	C676.356323,573.153198 676.467163,580.904480 676.467163,589.119202 
	C681.058777,588.787598 685.233826,588.796021 689.296875,588.125916 
	C697.024597,586.851257 700.655334,581.713867 700.156311,573.430481 
	C699.751709,566.714294 695.604248,563.101196 687.710999,562.712097 
	C685.387634,562.597534 683.052246,562.726074 679.778564,562.740601 
z"/>
<path fill="#0B97BC" opacity="1.000000" stroke="none" 
	d="
M365.258423,632.562988 
	C359.791809,629.833130 362.923950,626.017395 363.146118,621.670288 
	C365.440613,622.735413 367.203735,623.436401 368.855835,624.340271 
	C378.221375,629.464111 388.208771,630.331970 398.428467,628.191711 
	C407.079224,626.380005 411.268158,619.222595 407.675476,611.273682 
	C406.080353,607.744446 402.140686,604.632996 398.521637,602.801025 
	C392.027344,599.513672 384.979889,597.313416 378.147827,594.700195 
	C367.837891,590.756775 363.037933,583.903687 363.676941,573.960938 
	C364.271790,564.705261 370.307404,558.481201 380.942932,556.048035 
	C389.953827,553.986450 398.785797,554.542786 407.501343,557.576355 
	C414.254364,559.926758 414.879486,561.507996 412.173981,567.321289 
	C403.437286,565.852539 395.090546,563.917480 386.641632,563.219543 
	C381.176453,562.768127 376.160980,565.264771 373.635956,570.762939 
	C371.021179,576.456665 372.974457,582.030334 378.761780,584.430725 
	C387.516052,588.061829 396.664246,590.800537 405.243927,594.782654 
	C420.582489,601.901672 423.744293,620.511047 410.940735,630.716309 
	C406.216980,634.481445 399.061188,636.909668 393.017548,636.903809 
	C383.887421,636.895020 374.759888,634.219055 365.258423,632.562988 
z"/>
<path fill="#0B97BC" opacity="1.000000" stroke="none" 
	d="
M570.937012,590.833313 
	C575.484253,587.552185 579.672668,583.517090 584.653198,581.146301 
	C595.153625,576.148071 606.989624,579.951782 613.600525,589.562927 
	C620.826172,600.067749 620.874756,615.865234 613.713806,626.402222 
	C605.916992,637.874878 589.174988,640.896545 577.351501,632.972290 
	C575.883301,631.988159 574.387207,631.045776 572.059448,629.536438 
	C572.059448,642.285034 572.059448,654.112488 572.059448,666.418152 
	C568.909058,666.557251 566.320312,666.671570 563.182861,666.810059 
	C563.182861,644.002136 563.182861,621.441223 563.634583,598.314087 
	C565.399902,595.093384 565.170471,590.569214 570.339844,592.587097 
	C570.538879,592.002502 570.737915,591.417908 570.937012,590.833313 
M580.612732,589.438965 
	C580.362305,589.540283 580.244751,589.725891 579.589844,590.208374 
	C577.097717,592.610291 573.759094,594.579407 572.268799,597.493652 
	C567.395752,607.022827 572.185303,621.764771 581.359070,627.227905 
	C590.448059,632.640259 601.252808,630.562012 606.046753,622.637390 
	C610.511169,615.257568 611.322327,597.918823 602.564636,590.415771 
	C594.755432,584.633667 588.605835,584.235840 581.166077,589.155090 
	C581.166077,589.155090 580.962708,589.449097 580.612732,589.438965 
z"/>
<path fill="#0B97BC" opacity="1.000000" stroke="none" 
	d="
M815.012817,607.829590 
	C817.867737,613.749512 820.586670,619.321960 823.305603,624.894470 
	C823.789185,624.866882 824.272766,624.839355 824.756348,624.811768 
	C826.856201,620.056519 828.979187,615.311401 831.050964,610.543945 
	C835.088257,601.253113 839.032837,591.920776 843.206726,582.692078 
	C843.674561,581.657654 845.330505,580.653809 846.512329,580.555054 
	C848.943848,580.351746 851.427429,580.770508 854.591736,580.979736 
	C851.806580,586.922119 849.282837,592.407410 846.674744,597.852234 
	C839.135620,613.591553 831.686890,629.376038 823.950623,645.018127 
	C820.089722,652.824402 815.360046,660.084045 807.234619,664.281860 
	C806.058472,664.889465 804.879639,665.540039 803.629272,665.947998 
	C796.235168,668.360718 793.689209,666.252808 794.279907,657.787415 
	C805.401001,659.936218 809.876709,652.055847 815.026733,644.400208 
	C819.987427,637.025940 818.687988,630.942993 814.417175,623.763977 
	C806.361084,610.222229 799.205811,596.144409 791.692566,582.280579 
	C791.562500,582.040649 791.638062,581.689331 791.582153,580.871643 
	C794.568787,580.871643 797.531372,580.676086 800.440979,580.982666 
	C801.399231,581.083557 802.552002,582.317139 803.052185,583.315247 
	C807.069885,591.332703 810.952698,599.417786 815.012817,607.829590 
z"/>
<path fill="#0B97BC" opacity="1.000000" stroke="none" 
	d="
M536.530457,596.549866 
	C532.868835,585.792297 524.357117,583.983643 510.812714,587.854187 
	C508.172058,588.608765 505.647980,589.771240 502.945953,590.792542 
	C500.932892,585.824158 502.034454,582.966309 506.839569,581.631531 
	C515.594849,579.199524 524.318909,577.402100 533.268555,580.774414 
	C540.581543,583.529907 544.877014,588.863770 545.118347,596.506470 
	C545.527710,609.466980 545.230835,622.449829 545.230835,635.345093 
	C539.336792,637.609619 538.960571,637.361755 538.199768,631.825073 
	C538.039917,630.661377 537.387024,629.262146 536.494629,628.622498 
	C536.002136,628.269531 534.512146,629.209045 533.519897,629.669434 
	C528.311218,632.086121 523.326782,635.286316 517.872070,636.804199 
	C508.980621,639.278320 501.602600,635.502502 498.943817,628.296387 
	C495.516388,619.007019 498.320831,609.314209 506.907623,605.751404 
	C513.358459,603.074768 520.666504,602.372986 527.651978,601.121582 
	C530.386536,600.631653 533.282288,601.041382 536.671570,601.041382 
	C536.671570,599.466675 536.671570,598.222351 536.530457,596.549866 
M528.035461,626.710205 
	C535.929871,622.505493 537.845581,615.712524 536.412170,606.923523 
	C527.673096,606.184448 519.153931,606.479187 511.456238,611.286804 
	C506.943512,614.105164 505.277252,619.546875 506.977478,624.399658 
	C508.745392,629.445618 513.028870,630.473389 517.472534,630.024353 
	C520.840637,629.684021 524.083984,628.107971 528.035461,626.710205 
z"/>
<path fill="#0B97BC" opacity="1.000000" stroke="none" 
	d="
M447.250000,584.275269 
	C454.059204,579.860840 460.990356,577.374817 468.802704,579.524353 
	C477.201141,581.835205 482.226685,587.850098 482.403687,596.527283 
	C482.668549,609.511597 482.472443,622.505432 482.472443,635.967224 
	C479.730865,635.967224 477.019897,635.967224 474.020447,635.967224 
	C474.020447,626.102234 474.044708,616.173950 474.006287,606.245911 
	C473.994049,603.087524 474.134521,599.879944 473.650208,596.781555 
	C472.374481,588.619568 465.342651,584.194641 457.513824,586.823730 
	C449.585083,589.486572 441.671936,595.654358 442.356537,607.054810 
	C442.924438,616.512390 442.472778,626.031128 442.472778,636.130676 
	C439.633606,636.282043 436.905975,636.427429 433.673065,636.599792 
	C433.673065,617.956848 433.673065,599.709961 433.673065,580.961426 
	C435.764496,580.961426 438.107025,580.961426 440.654083,580.961426 
	C440.830933,583.858887 440.997375,586.585571 441.255890,590.820190 
	C443.800232,588.005554 445.380951,586.256897 447.250000,584.275269 
z"/>
<path fill="#0B97BC" opacity="1.000000" stroke="none" 
	d="
M741.015747,597.002136 
	C740.989075,603.657959 740.939514,609.814148 740.944885,615.970398 
	C740.948914,620.631287 740.464233,625.626038 745.543213,628.254211 
	C751.293091,631.229492 757.261963,630.883362 762.738342,627.701599 
	C768.648254,624.267883 772.230713,619.474731 771.840576,611.878723 
	C771.314148,601.627380 771.709839,591.328613 771.709839,580.742676 
	C774.702271,580.742676 777.763672,580.742676 780.772339,580.742676 
	C780.772339,599.365845 780.772339,617.614075 780.772339,635.762939 
	C775.275513,637.336182 775.275513,637.336182 772.804382,627.699585 
	C771.697998,628.435913 770.479553,628.912659 769.739441,629.791931 
	C763.239502,637.514587 754.607849,638.368713 745.660522,636.647034 
	C736.723694,634.927246 732.857971,630.254028 732.183655,621.155090 
	C731.643372,613.865906 731.706482,606.528625 731.603760,599.211243 
	C731.519897,593.236633 731.586731,587.259949 731.586731,580.827515 
	C734.657715,580.827515 737.684326,580.827515 741.016602,580.827515 
	C741.016602,586.229126 741.016602,591.365845 741.015747,597.002136 
z"/>
<path fill="#A3D26C" opacity="1.000000" stroke="none" 
	d="
M685.902954,472.074829 
	C691.110046,480.019653 696.308533,487.970184 701.528381,495.906647 
	C703.753418,499.289703 706.023254,502.643372 708.626953,506.063934 
	C708.456726,510.073883 712.308228,508.322113 713.911377,510.104218 
	C710.284790,510.345886 706.357056,510.779144 702.670837,510.027679 
	C687.889771,507.014496 673.188232,503.612366 658.443420,500.418091 
	C656.680969,500.036224 654.833435,500.046844 652.436584,499.694641 
	C651.560120,499.333313 651.272400,499.152893 650.984680,498.972504 
	C650.984680,498.972504 650.726868,498.777466 650.576538,498.722900 
	C650.114136,495.946716 649.802124,493.225037 649.777588,490.575867 
	C650.296753,494.478851 652.361633,494.254913 654.699280,492.547211 
	C659.348328,489.150909 663.693237,485.307831 668.504150,482.171448 
	C674.113770,478.514435 680.087341,475.415802 685.902954,472.074829 
z"/>
<path fill="#F4901E" opacity="1.000000" stroke="none" 
	d="
M491.138550,280.942444 
	C486.596222,280.814087 482.053864,280.685699 477.253113,280.272644 
	C479.445190,279.987976 481.895691,279.987976 484.030853,279.987976 
	C485.784393,271.305695 487.244293,262.650421 489.310333,254.142319 
	C493.722656,235.972397 514.450684,231.317703 525.733582,238.789688 
	C527.226440,239.778305 528.477661,241.131775 529.637573,242.854004 
	C529.433411,245.204788 529.175659,247.062912 529.484253,248.821655 
	C530.147949,252.604523 531.103210,256.336212 531.774231,259.833008 
	C531.187744,258.666931 530.766113,257.756683 530.304932,256.499146 
	C530.051025,255.742554 529.836670,255.333313 529.646362,254.700562 
	C529.566162,254.163727 529.353821,253.966812 528.962158,253.563217 
	C527.925354,251.495255 526.959900,249.750397 525.960815,247.734558 
	C525.637756,247.267715 525.348267,247.071854 525.049561,246.915939 
	C525.040283,246.955887 525.121582,246.945343 525.050598,246.675232 
	C524.668762,246.217072 524.357971,246.029022 523.909546,245.536682 
	C522.938782,244.518890 522.105591,243.805374 521.101929,242.879639 
	C519.952393,242.159378 518.973328,241.651352 517.749084,240.899139 
	C516.213318,240.374634 514.922668,240.094299 513.389038,239.508270 
	C512.220093,239.409760 511.294250,239.616928 510.063568,239.668243 
	C508.504395,239.949280 507.250061,240.386154 505.635315,240.826599 
	C503.194550,242.554413 501.114227,244.278656 498.906464,246.087250 
	C498.779022,246.171600 498.772736,246.477219 498.491943,246.713501 
	C497.418091,248.966354 496.625031,250.982910 495.602051,253.298950 
	C493.960938,262.713135 492.549774,271.827789 491.138550,280.942444 
z"/>
<path fill="#0B97BC" opacity="1.000000" stroke="none" 
	d="
M651.481201,242.990280 
	C650.734253,244.556641 649.987366,246.123001 649.240417,247.689362 
	C648.969666,247.637039 648.698975,247.584717 648.428223,247.532410 
	C648.428223,243.721420 648.428223,239.910416 648.428223,235.664337 
	C648.836609,236.582123 649.121460,237.222214 649.406311,237.862320 
	C648.787048,224.847473 650.712402,212.266220 655.935547,199.909195 
	C659.227966,193.520798 664.647766,190.367676 671.085632,189.685791 
	C673.819031,189.396271 676.805115,191.491287 679.749023,192.874954 
	C679.821716,193.247330 679.764709,193.331573 679.628601,193.348450 
	C679.492493,193.365341 679.502869,193.723068 679.502869,193.723068 
	C679.502869,193.723068 679.876831,193.862549 679.944092,193.929947 
	C680.011353,193.997345 680.149170,194.128784 680.194580,194.309235 
	C680.382385,194.721680 680.589844,194.838989 680.920837,194.916916 
	C680.979370,194.992233 681.083252,195.152222 681.053467,195.550751 
	C682.001892,199.997009 682.979980,204.044739 683.716980,207.854294 
	C681.361145,204.479492 679.547729,201.078583 677.073181,198.257614 
	C670.625427,190.907181 663.595154,191.880524 659.954590,201.009857 
	C657.284668,207.705093 655.507141,214.820267 653.983154,221.888718 
	C652.699280,227.843704 652.353394,234.000946 651.492981,240.144028 
	C651.237427,240.450073 651.258118,240.670349 651.530762,241.227783 
	C651.564270,242.046951 651.522705,242.518616 651.481201,242.990280 
z"/>
<path fill="#018DAA" opacity="1.000000" stroke="none" 
	d="
M683.958130,208.092453 
	C682.979980,204.044739 682.001892,199.997009 681.289001,195.696106 
	C682.267822,196.313400 682.981445,197.183868 683.695007,198.054337 
	C683.695007,198.054337 683.914978,198.057297 683.960083,198.276642 
	C684.005188,198.495987 684.276245,198.864838 684.276245,198.864838 
	C690.193115,210.788666 692.332581,223.624725 692.976135,236.720795 
	C693.356995,244.470764 692.987488,252.257599 692.933472,260.479126 
	C691.536499,260.946869 690.161560,260.963348 688.394958,260.490051 
	C688.032288,258.006287 688.070740,256.012360 688.088623,254.018250 
	C688.226990,238.573547 688.513855,223.115097 683.958130,208.092453 
z"/>
<path fill="#0B97BC" opacity="1.000000" stroke="none" 
	d="
M583.931763,259.922882 
	C580.168884,259.504761 576.406006,259.086609 572.799316,258.401703 
	C576.610107,258.933380 577.577454,257.470245 577.995422,253.767151 
	C579.271362,242.464111 581.169861,231.231323 582.826050,219.971207 
	C585.554749,213.418579 588.738953,207.224442 596.107849,203.896881 
	C598.453186,204.500595 600.200928,205.060669 601.559448,205.679749 
	C593.542908,206.953644 587.406128,215.245178 586.267578,225.940659 
	C586.074646,226.702362 586.005371,227.230392 585.828369,228.183548 
	C584.937439,233.680405 583.761414,238.730347 583.478760,243.829834 
	C583.182739,249.169403 583.744812,254.556534 583.931763,259.922882 
z"/>
<path fill="#7BA32D" opacity="1.000000" stroke="none" 
	d="
M739.297424,346.840027 
	C734.536560,346.659943 729.775696,346.479828 724.762939,346.127197 
	C727.266663,345.822083 730.022278,345.689453 733.792664,345.508026 
	C733.792664,339.082458 733.258240,332.781494 733.918396,326.608307 
	C734.900085,317.428131 736.117920,308.112701 743.879578,301.038605 
	C744.992126,301.630310 745.475586,302.268341 745.968445,302.939911 
	C745.977844,302.973419 745.909607,302.982849 745.626770,303.098083 
	C744.919434,303.849365 744.494995,304.485413 744.069214,305.497559 
	C738.601013,317.151978 737.153381,329.177795 737.634155,341.511749 
	C737.704163,343.306732 738.719543,345.064850 739.297424,346.840027 
z"/>
<path fill="#018DAA" opacity="1.000000" stroke="none" 
	d="
M625.000000,255.885010 
	C623.695984,256.904510 622.446594,257.424255 620.818970,257.464417 
	C620.239563,243.788986 620.030762,230.594223 614.964355,217.867386 
	C615.329651,217.099808 615.563721,216.584106 616.029419,215.967285 
	C616.819641,215.542694 617.378174,215.219238 617.936768,214.895782 
	C623.376221,227.853149 624.645630,241.543579 625.000000,255.885010 
z"/>
<path fill="#E6E7E7" opacity="1.000000" stroke="none" 
	d="
M582.421997,219.981003 
	C581.169861,231.231323 579.271362,242.464111 577.995422,253.767151 
	C577.577454,257.470245 576.610107,258.933380 572.528687,258.168335 
	C571.515259,257.875244 570.928711,257.548767 570.230713,256.724396 
	C572.990540,247.768814 575.861633,239.311127 578.796326,230.666336 
	C578.136719,230.711563 577.590332,230.588547 577.255005,230.800095 
	C575.870667,231.673431 574.550232,232.648178 573.206421,233.585663 
	C573.614014,230.829010 573.773682,228.006027 574.489258,225.331741 
	C575.477722,221.637772 577.656189,219.154709 582.421997,219.981003 
z"/>
<path fill="#E46D15" opacity="1.000000" stroke="none" 
	d="
M573.053345,233.844284 
	C574.550232,232.648178 575.870667,231.673431 577.255005,230.800095 
	C577.590332,230.588547 578.136719,230.711563 578.796326,230.666336 
	C575.861633,239.311127 572.990540,247.768814 569.936035,256.565063 
	C567.945007,256.843964 566.137268,256.784302 564.116943,256.704102 
	C564.010010,248.004105 568.467041,241.058212 573.053345,233.844284 
z"/>
<path fill="#E46D15" opacity="1.000000" stroke="none" 
	d="
M531.939087,260.088867 
	C531.103210,256.336212 530.147949,252.604523 529.484253,248.821655 
	C529.175659,247.062912 529.433411,245.204788 529.697510,243.184448 
	C529.960632,242.977173 530.224365,243.156387 530.243164,243.625793 
	C530.549683,244.368332 530.837402,244.641449 531.125122,244.914551 
	C531.125122,244.914566 530.998108,244.925613 531.028076,245.194092 
	C531.508545,245.995544 531.959106,246.528503 532.409607,247.061478 
	C536.515015,257.677094 538.620605,268.683411 538.996338,280.487976 
	C537.419739,280.924011 535.702820,280.927277 533.650330,280.488464 
	C533.159363,276.688904 533.003906,273.331360 532.911255,269.581421 
	C532.661926,267.424103 532.349854,265.659241 532.075195,263.561401 
	C531.987549,262.803314 531.862366,262.378143 531.802124,261.646240 
	C531.891113,260.922607 531.915100,260.505737 531.939087,260.088867 
z"/>
<path fill="#A3D26C" opacity="1.000000" stroke="none" 
	d="
M709.954224,315.628265 
	C708.501831,315.403961 707.159668,314.853912 705.723389,314.265320 
	C706.536255,319.331207 707.317566,324.200470 707.829102,329.263428 
	C705.037842,323.950897 703.142944,318.028656 699.834045,313.045166 
	C695.815430,306.992737 688.460876,306.746796 682.998169,311.235840 
	C682.985474,310.674774 682.975220,310.354279 682.982544,310.011719 
	C683.002319,309.989563 683.039062,309.942993 683.240356,309.833221 
	C683.365479,309.256531 683.289307,308.789642 683.173462,308.261322 
	C683.133850,308.199921 683.055298,308.076630 683.055298,308.076630 
	C687.950012,303.264618 698.883240,304.145142 704.502197,310.021729 
	C706.265137,311.865509 707.532227,313.290222 709.588562,310.118713 
	C709.889832,311.696503 709.977112,313.499481 709.954224,315.628265 
z"/>
<path fill="#7BA32D" opacity="1.000000" stroke="none" 
	d="
M768.884277,303.030548 
	C773.543823,310.082428 774.819336,318.034119 774.968994,326.972748 
	C775.259949,328.853729 775.642944,330.022614 776.025879,331.191528 
	C776.289856,334.484924 776.553772,337.778351 776.546387,341.807922 
	C776.037842,344.026703 775.800659,345.509369 775.792664,345.559448 
	C774.565613,341.086975 773.038452,335.520691 771.483276,329.518066 
	C771.323059,327.047302 771.190918,325.012878 771.267700,322.842468 
	C771.187988,322.074677 770.899414,321.442871 770.485107,320.463562 
	C770.255920,319.383759 770.152466,318.651428 770.094910,317.492981 
	C768.735413,312.399628 767.330017,307.732422 765.959595,303.032959 
	C765.994507,303.000763 766.058716,302.930725 766.412598,302.921509 
	C767.472473,302.951721 768.178345,302.991119 768.884277,303.030548 
z"/>
<path fill="#A3D26C" opacity="1.000000" stroke="none" 
	d="
M768.866333,302.691467 
	C768.178345,302.991119 767.472473,302.951721 766.340149,302.759521 
	C765.792480,302.565216 765.671143,302.523651 765.549866,302.482086 
	C765.674805,302.676453 765.799683,302.870819 765.924622,303.065186 
	C767.330017,307.732422 768.735413,312.399628 769.838379,317.248108 
	C768.416077,314.527039 767.660156,311.412262 766.111450,308.760529 
	C760.422241,299.019806 754.895813,297.516357 745.959045,302.906403 
	C745.475586,302.268341 744.992126,301.630310 744.187378,300.906189 
	C751.284180,293.881989 762.458069,294.567322 768.866333,302.691467 
z"/>
<path fill="#018DAA" opacity="1.000000" stroke="none" 
	d="
M570.680115,590.513367 
	C570.737915,591.417908 570.538879,592.002502 570.339844,592.587097 
	C565.170471,590.569214 565.399902,595.093384 563.757874,597.858521 
	C563.367981,597.508606 563.306458,597.047913 563.541748,595.907227 
	C563.598206,590.821838 563.357910,586.416504 563.117554,582.011108 
	C565.279541,581.381287 567.441528,580.751465 569.940369,580.023499 
	C569.940369,583.638428 569.940369,586.165833 569.970459,589.121887 
	C570.000488,589.550537 570.007874,589.485840 570.007874,589.485840 
	C570.146362,589.721741 570.284790,589.957581 570.680115,590.513367 
z"/>
<path fill="#A3D26C" opacity="1.000000" stroke="none" 
	d="
M771.511353,329.954437 
	C773.038452,335.520691 774.565613,341.086975 775.792664,345.559448 
	C775.800659,345.509369 776.037842,344.026703 776.503418,342.264343 
	C777.916077,344.050079 775.079895,347.833069 779.870422,348.676605 
	C774.905579,348.632324 769.589111,348.419617 764.496826,347.764832 
	C770.913757,347.999756 770.944885,348.001038 771.197388,341.807892 
	C771.358459,337.859039 771.410522,333.905731 771.511353,329.954437 
z"/>
<path fill="#3DC4E0" opacity="1.000000" stroke="none" 
	d="
M615.797852,216.068405 
	C615.563721,216.584106 615.329651,217.099808 614.705078,217.652832 
	C611.637268,212.186935 607.928162,207.740799 601.948730,205.620758 
	C600.200928,205.060669 598.453186,204.500595 596.415222,203.833206 
	C599.890503,203.320511 603.656006,202.915146 607.359009,202.840576 
	C608.222717,203.760101 609.148804,204.348816 610.074951,204.937531 
	C610.074951,204.937531 610.041260,204.863373 610.020142,205.219940 
	C611.932007,209.073792 613.864929,212.571106 615.797852,216.068405 
z"/>
<path fill="#0B97BC" opacity="1.000000" stroke="none" 
	d="
M616.029480,215.967285 
	C613.864929,212.571106 611.932007,209.073792 610.056702,205.201996 
	C615.484497,205.746689 616.734802,210.142944 618.056091,214.637177 
	C617.378174,215.219238 616.819641,215.542694 616.029480,215.967285 
z"/>
<path fill="#F4901E" opacity="1.000000" stroke="none" 
	d="
M474.062561,279.657104 
	C470.306946,280.255310 466.179565,280.628357 461.622314,281.003174 
	C461.985657,280.255676 462.772308,278.875183 463.573181,278.866913 
	C466.943390,278.832031 470.317871,279.207001 474.062561,279.657104 
z"/>
<path fill="#A3D26C" opacity="1.000000" stroke="none" 
	d="
M790.335938,356.739868 
	C789.589417,354.549255 789.005249,352.058502 788.225159,349.215393 
	C792.218201,350.291687 789.686646,353.910431 790.335938,356.739868 
z"/>
<path fill="#0B97BC" opacity="1.000000" stroke="none" 
	d="
M563.058899,582.471680 
	C563.357910,586.416504 563.598206,590.821838 563.630127,595.567505 
	C563.281189,591.582642 563.140686,587.257446 563.058899,582.471680 
z"/>
<path fill="#A3D26C" opacity="1.000000" stroke="none" 
	d="
M776.225464,330.884064 
	C775.642944,330.022614 775.259949,328.853729 774.949463,327.349426 
	C775.489746,328.201569 775.957397,329.389099 776.225464,330.884064 
z"/>
<path fill="#0B97BC" opacity="1.000000" stroke="none" 
	d="
M683.589844,197.757538 
	C682.981445,197.183868 682.267822,196.313400 681.318726,195.297577 
	C681.083252,195.152222 680.979370,194.992233 680.912231,194.766815 
	C680.845032,194.541397 680.747314,194.252930 680.753662,194.244263 
	C680.760010,194.235611 680.780273,194.231247 680.780273,194.231232 
	C681.681763,195.307724 682.583191,196.384216 683.589844,197.757538 
z"/>
<path fill="#0B97BC" opacity="1.000000" stroke="none" 
	d="
M610.065186,204.619049 
	C609.148804,204.348816 608.222717,203.760101 607.583008,203.108353 
	C608.598145,203.463730 609.326782,203.882141 610.065186,204.619049 
z"/>
<path fill="#F4901E" opacity="1.000000" stroke="none" 
	d="
M532.436707,246.787262 
	C531.959106,246.528503 531.508545,245.995544 531.088989,245.174408 
	C531.567871,245.428528 532.015869,245.970795 532.436707,246.787262 
z"/>
<path fill="#A3D26C" opacity="1.000000" stroke="none" 
	d="
M715.317993,510.081177 
	C715.491089,509.727905 715.973999,509.377197 716.774780,509.042419 
	C716.604431,509.400116 716.116150,509.741913 715.317993,510.081177 
z"/>
<path fill="#A3D26C" opacity="1.000000" stroke="none" 
	d="
M786.930359,348.777100 
	C786.635254,348.928650 786.121582,348.971954 785.225464,348.947388 
	C785.465942,348.809326 786.088867,348.739105 786.930359,348.777100 
z"/>
<path fill="#F4901E" opacity="1.000000" stroke="none" 
	d="
M461.145569,297.355225 
	C461.343842,297.577362 461.468506,298.116089 461.405548,298.805054 
	C461.169281,298.527466 461.120636,298.099640 461.145569,297.355225 
z"/>
<path fill="#0B97BC" opacity="1.000000" stroke="none" 
	d="
M569.983398,589.561218 
	C570.007874,589.485840 570.000488,589.550537 569.979248,589.557861 
	C569.958008,589.565125 569.958862,589.636597 569.983398,589.561218 
z"/>
<path fill="#0B97BC" opacity="1.000000" stroke="none" 
	d="
M679.850098,193.205139 
	C680.085327,193.395950 680.297974,193.623520 680.648376,194.038452 
	C680.780273,194.231247 680.760010,194.235611 680.608643,194.193390 
	C680.457275,194.151169 680.149170,194.128784 680.149170,194.128784 
	C680.149170,194.128784 680.011353,193.997345 679.937378,193.793472 
	C679.863464,193.589600 679.764709,193.331573 679.764709,193.331573 
	C679.764709,193.331573 679.821716,193.247330 679.850098,193.205139 
z"/>
<path fill="#F4901E" opacity="1.000000" stroke="none" 
	d="
M531.086426,244.621155 
	C530.837402,244.641449 530.549683,244.368332 530.262207,243.784088 
	C530.524292,243.757889 530.786011,244.042816 531.086426,244.621155 
z"/>
<path fill="#0B97BC" opacity="1.000000" stroke="none" 
	d="
M684.337341,198.724167 
	C684.276245,198.864838 684.005188,198.495987 683.969421,198.386230 
	C684.184387,198.234009 684.339355,198.336349 684.337341,198.724167 
z"/>
<path fill="#E6E7E7" opacity="1.000000" stroke="none" 
	d="
M651.091858,499.226868 
	C651.272400,499.152893 651.560120,499.333313 652.012207,499.714783 
	C651.850708,499.770966 651.524902,499.626099 651.091858,499.226868 
z"/>
<path fill="#7BA32D" opacity="1.000000" stroke="none" 
	d="
M718.509521,345.724152 
	C718.533997,345.801483 718.450745,345.760986 718.460876,345.785065 
	C718.471008,345.809143 718.484985,345.646820 718.509521,345.724152 
z"/>
<path fill="#7BA32D" opacity="1.000000" stroke="none" 
	d="
M714.510376,345.674927 
	C714.519592,345.750824 714.422180,345.698853 714.409058,345.704407 
	C714.395874,345.709991 714.501099,345.599030 714.510376,345.674927 
z"/>
<path fill="#FAFCFC" opacity="1.000000" stroke="none" 
	d="
M771.483276,329.518066 
	C771.410522,333.905731 771.358459,337.859039 771.197388,341.807892 
	C770.944885,348.001038 770.913757,347.999756 764.341675,347.417847 
	C763.517029,347.463531 763.071594,347.414185 761.854248,347.262146 
	C757.386658,347.122009 753.691162,347.084564 749.995605,347.047089 
	C746.716614,346.933319 743.437561,346.819580 739.728027,346.772949 
	C738.719543,345.064850 737.704163,343.306732 737.634155,341.511749 
	C737.153381,329.177795 738.601013,317.151978 744.321411,305.322662 
	C745.019836,304.175354 745.464722,303.579102 745.909607,302.982849 
	C745.909607,302.982849 745.977844,302.973419 745.968445,302.939911 
	C754.895813,297.516357 760.422241,299.019806 766.111450,308.760529 
	C767.660156,311.412262 768.416077,314.527039 769.792480,317.674194 
	C770.152466,318.651428 770.255920,319.383759 770.340820,320.745239 
	C770.567810,321.909088 770.813293,322.443787 771.058716,322.978485 
	C771.190918,325.012878 771.323059,327.047302 771.483276,329.518066 
z"/>
<path fill="#A3D26C" opacity="1.000000" stroke="none" 
	d="
M750.300781,347.314392 
	C753.691162,347.084564 757.386658,347.122009 761.519287,347.300659 
	C758.172852,347.488464 754.389404,347.535065 750.300781,347.314392 
z"/>
<path fill="#8DC53F" opacity="1.000000" stroke="none" 
	d="
M682.962830,310.033875 
	C682.975220,310.354279 682.985474,310.674774 682.790283,311.538879 
	C680.763306,315.562347 678.337402,318.865479 677.251648,322.562225 
	C675.454285,328.681763 674.199768,335.017334 673.457703,341.348755 
	C673.281555,342.851257 675.779541,345.774506 677.499023,346.194092 
	C683.867432,347.748260 690.308167,349.348663 697.016357,346.931580 
	C699.723938,345.955963 702.939087,346.389343 705.923279,346.181519 
	C704.915222,346.772980 703.968384,347.687622 702.886963,347.892609 
	C700.137817,348.413788 697.179871,348.196991 694.600037,349.108948 
	C693.099060,349.639496 691.276428,351.689911 691.129517,353.204865 
	C690.459290,360.118500 690.158569,367.081696 690.039307,374.032471 
	C689.617798,398.612061 689.513977,423.198730 688.873840,447.771912 
	C688.668640,455.647858 687.174805,463.490234 686.086792,471.711426 
	C680.087341,475.415802 674.113770,478.514435 668.504150,482.171448 
	C663.693237,485.307831 659.348328,489.150909 654.699280,492.547211 
	C652.361633,494.254913 650.296753,494.478851 650.001465,490.280396 
	C649.897827,486.299622 649.857727,482.686859 649.898987,478.262207 
	C649.673340,476.566559 649.366333,475.682800 649.059265,474.799042 
	C649.059265,430.932312 649.059265,387.065582 649.059265,342.512878 
	C654.168030,343.294189 658.261841,343.744385 662.276855,344.575104 
	C668.495178,345.861664 669.144165,345.361969 669.397156,339.113251 
	C669.806580,328.999878 672.184692,319.484924 679.130188,311.138611 
	C680.139954,310.626099 680.552124,310.273773 680.964233,309.921478 
	C680.964233,309.921478 680.942932,309.992645 681.269653,309.999878 
	C682.051880,310.016022 682.507324,310.024933 682.962830,310.033875 
z"/>
<path fill="#018DAA" opacity="1.000000" stroke="none" 
	d="
M596.814453,435.113983 
	C596.874634,421.466919 596.794128,407.817535 597.022461,394.173279 
	C597.617432,358.628326 598.254517,323.083466 599.095886,287.543793 
	C599.283508,279.621460 600.379333,271.720612 601.322021,263.062561 
	C604.349365,261.725098 607.111572,261.135010 610.144653,260.472839 
	C611.678345,260.179504 612.941345,259.958252 614.204285,259.737000 
	C619.277893,259.828827 618.807983,264.028931 618.857605,266.945953 
	C618.967346,273.391876 618.109985,279.848755 618.070190,286.303772 
	C617.949036,305.941772 617.769653,325.585510 618.106628,345.218506 
	C618.411011,362.957642 619.617554,380.680542 619.974121,398.419708 
	C620.515137,425.338623 620.673950,452.265320 620.926758,479.189392 
	C620.932983,479.854767 620.137329,480.527679 619.316284,480.754059 
	C614.225830,471.424225 609.366089,462.621063 604.902954,453.621216 
	C601.915344,447.596680 599.490906,441.292847 596.814453,435.113983 
z"/>
<path fill="#FAFCFC" opacity="1.000000" stroke="none" 
	d="
M683.716980,207.854294 
	C688.513855,223.115097 688.226990,238.573547 688.088623,254.018250 
	C688.070740,256.012360 688.032288,258.006287 687.982056,260.460999 
	C676.334045,260.921722 664.707336,260.921722 652.561523,260.921722 
	C652.160583,254.464676 651.833313,249.193573 651.493591,243.456375 
	C651.522705,242.518616 651.564270,242.046951 651.649048,241.039154 
	C651.692322,240.502991 651.592285,240.068649 651.592285,240.068649 
	C652.353394,234.000946 652.699280,227.843704 653.983154,221.888718 
	C655.507141,214.820267 657.284668,207.705093 659.954590,201.009857 
	C663.595154,191.880524 670.625427,190.907181 677.073181,198.257614 
	C679.547729,201.078583 681.361145,204.479492 683.716980,207.854294 
z"/>
<path fill="#3DC4E0" opacity="1.000000" stroke="none" 
	d="
M596.461304,435.085419 
	C599.490906,441.292847 601.915344,447.596680 604.902954,453.621216 
	C609.366089,462.621063 614.225830,471.424225 619.000427,480.658325 
	C614.757568,483.064667 618.127625,484.522858 619.676331,485.532074 
	C621.103638,486.462189 623.029968,486.626709 625.131531,487.312988 
	C621.779785,487.165588 617.857361,487.434479 614.315796,486.399963 
	C596.941956,481.325073 579.679565,475.869598 562.355042,470.623810 
	C556.743958,468.924805 556.491638,464.673737 556.860962,459.559418 
	C556.875305,442.068298 556.949829,425.002838 557.107056,407.476715 
	C557.442627,408.783966 557.907715,410.551056 557.914917,412.319946 
	C557.980835,428.465912 557.967285,444.612152 557.976624,460.758331 
	C557.977478,462.195740 557.976807,463.633148 557.976807,466.227325 
	C561.662720,463.437805 564.674622,461.464691 567.329346,459.091858 
	C575.247437,452.014343 582.972229,444.720276 590.907837,437.662842 
	C592.307068,436.418396 594.358154,435.906860 596.461304,435.085419 
z"/>
<path fill="#FAFCFC" opacity="1.000000" stroke="none" 
	d="
M601.559448,205.679749 
	C607.928162,207.740799 611.637268,212.186935 614.573853,217.904694 
	C620.030762,230.594223 620.239563,243.788986 620.469666,257.443909 
	C620.261597,258.024780 620.024536,258.146606 619.467773,258.422302 
	C618.880066,258.532349 618.737549,258.620178 618.720398,258.839630 
	C617.873962,258.865723 617.027466,258.891815 615.664673,258.457275 
	C613.469666,248.787521 610.792236,239.949265 605.468262,231.765015 
	C603.606323,230.369415 601.798645,229.282394 599.717041,227.967804 
	C598.074341,227.425949 596.705688,227.111694 595.118652,226.536163 
	C593.643433,226.092880 592.386536,225.910858 590.759766,225.541473 
	C589.575378,225.439301 588.760864,225.524475 587.693176,225.506470 
	C587.090393,225.504501 586.740723,225.605743 586.391113,225.706985 
	C587.406128,215.245178 593.542908,206.953644 601.559448,205.679749 
z"/>
<path fill="#E46D15" opacity="1.000000" stroke="none" 
	d="
M605.522522,232.073578 
	C610.792236,239.949265 613.469666,248.787521 615.246277,258.388306 
	C615.138794,258.920349 614.933350,259.060730 614.466064,259.469055 
	C612.941345,259.958252 611.678345,260.179504 610.105286,260.060242 
	C608.208069,253.440292 606.620911,247.160889 605.179932,240.589172 
	C604.122864,237.367966 602.919678,234.439072 601.663574,231.381363 
	C602.987915,231.618912 604.255249,231.846237 605.522522,232.073578 
z"/>
<path fill="#A3D26C" opacity="1.000000" stroke="none" 
	d="
M682.982544,310.011719 
	C682.507324,310.024933 682.051880,310.016022 681.256836,309.964966 
	C681.428223,309.356689 681.939087,308.790558 682.752625,308.150543 
	C683.055298,308.076630 683.133850,308.199921 683.115723,308.525238 
	C683.078064,309.214691 683.058533,309.578857 683.039062,309.942993 
	C683.039062,309.942993 683.002319,309.989563 682.982544,310.011719 
z"/>
<path fill="#A3D26C" opacity="1.000000" stroke="none" 
	d="
M648.957458,474.930786 
	C649.366333,475.682800 649.673340,476.566559 649.911011,477.813385 
	C649.544434,477.499268 649.247131,476.822083 648.879272,475.768555 
	C648.808655,475.392242 648.855652,475.062561 648.957458,474.930786 
z"/>
<path fill="#A3D26C" opacity="1.000000" stroke="none" 
	d="
M680.676880,309.928131 
	C680.552124,310.273773 680.139954,310.626099 679.440430,311.011047 
	C679.565125,310.674103 679.977356,310.304443 680.676880,309.928131 
z"/>
<path fill="#018DAA" opacity="1.000000" stroke="none" 
	d="
M618.774353,258.815857 
	C618.737549,258.620178 618.880066,258.532349 619.161011,258.678589 
	C619.174072,258.781067 618.828308,258.792053 618.774353,258.815857 
z"/>
<path fill="#FAFCFC" opacity="1.000000" stroke="none" 
	d="
M605.033813,240.881470 
	C606.620911,247.160889 608.208069,253.440292 609.834473,260.132324 
	C607.111572,261.135010 604.349365,261.725098 601.329651,262.597656 
	C595.635620,261.924774 590.199036,260.969421 584.347107,259.968475 
	C583.744812,254.556534 583.182739,249.169403 583.478760,243.829834 
	C583.761414,238.730347 584.937439,233.680405 586.168823,228.239120 
	C587.697632,228.064575 588.778320,228.259583 590.244507,228.648117 
	C590.915222,228.871109 591.200500,228.900558 591.458252,229.034790 
	C591.430725,229.139542 591.514099,228.943527 591.938843,229.132584 
	C592.969788,229.436630 593.576111,229.551620 594.348816,229.957062 
	C598.021484,233.792145 601.527649,237.336807 605.033813,240.881470 
z"/>
<path fill="#E46D15" opacity="1.000000" stroke="none" 
	d="
M529.991028,281.104126 
	C534.189514,328.224945 532.638184,375.466949 533.133606,422.670166 
	C533.270752,435.739166 534.770203,448.793823 535.644653,461.855072 
	C535.245728,461.992737 534.846802,462.130371 534.447815,462.268036 
	C529.816895,456.146759 525.112793,450.079041 520.577454,443.887726 
	C516.754272,438.668701 513.405334,433.079376 509.328217,428.076324 
	C505.844879,423.801941 504.825470,419.302917 504.911224,413.912201 
	C505.176117,397.257660 504.996490,380.596008 504.978455,363.468567 
	C504.315155,346.289307 503.403717,329.583221 503.106537,312.866211 
	C502.924194,302.608276 503.682617,292.333618 504.489044,281.533997 
	C513.303345,281.035706 521.647156,281.069916 529.991028,281.104126 
z"/>
<path fill="#FFFFFF" opacity="1.000000" stroke="none" 
	d="
M530.376099,281.029846 
	C521.647156,281.069916 513.303345,281.035706 504.499969,281.075317 
	C500.042206,281.086334 496.044006,281.023560 491.592163,280.951599 
	C492.549774,271.827789 493.960938,262.713135 495.961151,253.254990 
	C499.329010,251.470734 500.856598,249.597717 498.772736,246.477219 
	C498.772736,246.477219 498.779022,246.171600 499.271606,246.082367 
	C501.841370,244.269775 503.918549,242.546417 505.995728,240.823059 
	C507.250061,240.386154 508.504395,239.949280 510.608032,239.711884 
	C512.182251,239.878906 512.907166,239.846436 513.632080,239.813965 
	C514.922668,240.094299 516.213318,240.374634 517.751831,241.290161 
	C518.416321,242.861908 518.832825,243.798462 519.249329,244.735046 
	C519.923706,244.187332 520.598083,243.639618 521.272400,243.091888 
	C522.105591,243.805374 522.938782,244.518890 524.003174,245.792908 
	C524.530151,246.550720 524.825867,246.748032 525.121582,246.945343 
	C525.121582,246.945343 525.040283,246.955887 525.126587,247.161743 
	C525.473389,247.580261 525.733948,247.792892 525.994446,248.005539 
	C526.959900,249.750397 527.925354,251.495255 529.003235,253.765594 
	C529.213135,254.559204 529.382019,254.770203 529.622314,254.924057 
	C529.836670,255.333313 530.051025,255.742554 529.996338,256.688171 
	C527.901062,259.861694 529.821472,260.906342 531.737183,261.952972 
	C531.862366,262.378143 531.987549,262.803314 532.058594,263.967651 
	C532.285767,266.462524 532.567078,268.218170 532.848389,269.973846 
	C533.003906,273.331360 533.159363,276.688904 533.221069,280.490387 
	C532.338623,280.941406 531.549927,280.948456 530.376099,281.029846 
z"/>
<path fill="#02B4D0" opacity="1.000000" stroke="none" 
	d="
M706.276733,346.003998 
	C702.939087,346.389343 699.723938,345.955963 697.016357,346.931580 
	C690.308167,349.348663 683.867432,347.748260 677.499023,346.194092 
	C675.779541,345.774506 673.281555,342.851257 673.457703,341.348755 
	C674.199768,335.017334 675.454285,328.681763 677.251648,322.562225 
	C678.337402,318.865479 680.763306,315.562347 682.794983,311.779327 
	C688.460876,306.746796 695.815430,306.992737 699.834045,313.045166 
	C703.142944,318.028656 705.037842,323.950897 707.811035,329.704651 
	C708.331604,332.660767 708.629395,335.366852 708.861572,338.078522 
	C709.106140,340.934570 710.036133,344.012238 706.276733,346.003998 
z"/>
<path fill="#FAFCFC" opacity="1.000000" stroke="none" 
	d="
M676.127014,607.053345 
	C676.366821,593.032288 674.592834,595.141174 687.877075,595.285522 
	C691.108521,595.320679 694.469666,596.161316 697.523926,597.296814 
	C705.661011,600.322205 708.702515,605.497803 707.751709,613.805054 
	C706.808899,622.042542 701.589417,627.793213 693.490784,628.701416 
	C688.733765,629.234863 683.876038,628.831726 679.065796,628.943604 
	C676.122986,629.012024 676.006958,627.145325 676.030640,624.980835 
	C676.094299,619.168945 676.097595,613.356506 676.127014,607.053345 
z"/>
<path fill="#FAFCFC" opacity="1.000000" stroke="none" 
	d="
M680.250488,562.741943 
	C683.052246,562.726074 685.387634,562.597534 687.710999,562.712097 
	C695.604248,563.101196 699.751709,566.714294 700.156311,573.430481 
	C700.655334,581.713867 697.024597,586.851257 689.296875,588.125916 
	C685.233826,588.796021 681.058777,588.787598 676.467163,589.119202 
	C676.467163,580.904480 676.356323,573.153198 676.613159,565.414062 
	C676.643860,564.488953 678.674744,563.630127 680.250488,562.741943 
z"/>
<path fill="#FAFCFC" opacity="1.000000" stroke="none" 
	d="
M602.824585,591.037598 
	C611.322327,597.918823 610.511169,615.257568 606.046753,622.637390 
	C601.252808,630.562012 590.448059,632.640259 581.359070,627.227905 
	C572.185303,621.764771 567.395752,607.022827 572.268799,597.493652 
	C573.759094,594.579407 577.097717,592.610291 580.073242,590.057617 
	C580.751099,589.806763 580.886475,589.654175 580.962708,589.449097 
	C580.962708,589.449097 581.166077,589.155090 581.741455,589.104858 
	C589.152710,589.715576 595.988647,590.376587 602.824585,591.037598 
z"/>
<path fill="#E6E7E7" opacity="1.000000" stroke="none" 
	d="
M602.694580,590.726685 
	C595.988647,590.376587 589.152710,589.715576 581.912903,589.054199 
	C588.605835,584.235840 594.755432,584.633667 602.694580,590.726685 
z"/>
<path fill="#E6E7E7" opacity="1.000000" stroke="none" 
	d="
M580.787720,589.444031 
	C580.886475,589.654175 580.751099,589.806763 580.408325,589.951355 
	C580.244751,589.725891 580.362305,589.540283 580.787720,589.444031 
z"/>
<path fill="#FAFCFC" opacity="1.000000" stroke="none" 
	d="
M527.709106,626.895996 
	C524.083984,628.107971 520.840637,629.684021 517.472534,630.024353 
	C513.028870,630.473389 508.745392,629.445618 506.977478,624.399658 
	C505.277252,619.546875 506.943512,614.105164 511.456238,611.286804 
	C519.153931,606.479187 527.673096,606.184448 536.412170,606.923523 
	C537.845581,615.712524 535.929871,622.505493 527.709106,626.895996 
z"/>
<path fill="#FAFCFC" opacity="1.000000" stroke="none" 
	d="
M505.635315,240.826614 
	C503.918549,242.546417 501.841370,244.269775 499.399048,245.998016 
	C501.114227,244.278656 503.194550,242.554413 505.635315,240.826614 
z"/>
<path fill="#FAFCFC" opacity="1.000000" stroke="none" 
	d="
M498.491943,246.713501 
	C500.856598,249.597717 499.329010,251.470734 496.191071,252.955505 
	C496.625031,250.982910 497.418091,248.966354 498.491943,246.713501 
z"/>
<path fill="#FAFCFC" opacity="1.000000" stroke="none" 
	d="
M531.802124,261.646240 
	C529.821472,260.906342 527.901062,259.861694 530.035889,257.035492 
	C530.766113,257.756683 531.187744,258.666931 531.774231,259.833008 
	C531.915100,260.505737 531.891113,260.922607 531.802124,261.646240 
z"/>
<path fill="#FAFCFC" opacity="1.000000" stroke="none" 
	d="
M521.101929,242.879654 
	C520.598083,243.639618 519.923706,244.187332 519.249329,244.735046 
	C518.832825,243.798462 518.416321,242.861908 517.997009,241.534332 
	C518.973328,241.651352 519.952393,242.159378 521.101929,242.879654 
z"/>
<path fill="#FAFCFC" opacity="1.000000" stroke="none" 
	d="
M513.389038,239.508270 
	C512.907166,239.846436 512.182251,239.878906 510.912842,239.867737 
	C511.294250,239.616928 512.220093,239.409760 513.389038,239.508270 
z"/>
<path fill="#FAFCFC" opacity="1.000000" stroke="none" 
	d="
M525.050598,246.675232 
	C524.825867,246.748032 524.530151,246.550720 524.140747,246.097168 
	C524.357971,246.029022 524.668762,246.217072 525.050598,246.675232 
z"/>
<path fill="#FAFCFC" opacity="1.000000" stroke="none" 
	d="
M525.960815,247.734558 
	C525.733948,247.792892 525.473389,247.580261 525.135864,247.121796 
	C525.348267,247.071854 525.637756,247.267715 525.960815,247.734558 
z"/>
<path fill="#FAFCFC" opacity="1.000000" stroke="none" 
	d="
M529.646362,254.700562 
	C529.382019,254.770203 529.213135,254.559204 529.074585,254.088684 
	C529.353821,253.966812 529.566162,254.163727 529.646362,254.700562 
z"/>
<path fill="#018DAA" opacity="1.000000" stroke="none" 
	d="
M680.194580,194.309235 
	C680.149170,194.128784 680.457275,194.151169 680.602295,194.202057 
	C680.747314,194.252930 680.845032,194.541397 680.853638,194.691498 
	C680.589844,194.838989 680.382385,194.721680 680.194580,194.309235 
z"/>
<path fill="#018DAA" opacity="1.000000" stroke="none" 
	d="
M679.628601,193.348450 
	C679.764709,193.331573 679.863464,193.589600 679.870117,193.726074 
	C679.876831,193.862549 679.502869,193.723068 679.502869,193.723068 
	C679.502869,193.723068 679.492493,193.365341 679.628601,193.348450 
z"/>
<path fill="#02B4D0" opacity="1.000000" stroke="none" 
	d="
M651.492981,240.144028 
	C651.592285,240.068649 651.692322,240.502991 651.573975,240.691620 
	C651.258118,240.670349 651.237427,240.450073 651.492981,240.144028 
z"/>
<path fill="#F4901E" opacity="1.000000" stroke="none" 
	d="
M589.859070,228.454590 
	C588.778320,228.259583 587.697632,228.064575 586.276489,227.813995 
	C586.005371,227.230392 586.074646,226.702362 586.267578,225.940659 
	C586.740723,225.605743 587.090393,225.504501 587.704773,225.777679 
	C588.599365,226.919586 589.229187,227.687103 589.859070,228.454590 
z"/>
<path fill="#A3D26C" opacity="1.000000" stroke="none" 
	d="
M745.626770,303.098083 
	C745.464722,303.579102 745.019836,304.175354 744.322754,304.946533 
	C744.494995,304.485413 744.919434,303.849365 745.626770,303.098083 
z"/>
<path fill="#FAFCFC" opacity="1.000000" stroke="none" 
	d="
M532.911255,269.581421 
	C532.567078,268.218170 532.285767,266.462524 532.021057,264.300598 
	C532.349854,265.659241 532.661926,267.424103 532.911255,269.581421 
z"/>
<path fill="#8DC53F" opacity="1.000000" stroke="none" 
	d="
M683.240356,309.833221 
	C683.058533,309.578857 683.078064,309.214691 683.155334,308.586639 
	C683.289307,308.789642 683.365479,309.256531 683.240356,309.833221 
z"/>
<path fill="#A3D26C" opacity="1.000000" stroke="none" 
	d="
M771.267700,322.842468 
	C770.813293,322.443787 770.567810,321.909088 770.466553,321.092743 
	C770.899414,321.442871 771.187988,322.074677 771.267700,322.842468 
z"/>
<path fill="#7BA32D" opacity="1.000000" stroke="none" 
	d="
M765.959595,303.032959 
	C765.799683,302.870819 765.674805,302.676453 765.549866,302.482086 
	C765.671143,302.523651 765.792480,302.565216 765.986206,302.768738 
	C766.058716,302.930725 765.994507,303.000763 765.959595,303.032959 
z"/>
<path fill="#F4901E" opacity="1.000000" stroke="none" 
	d="
M605.179932,240.589172 
	C601.527649,237.336807 598.021484,233.792145 594.581787,229.739258 
	C596.429199,228.885803 598.210083,228.540588 599.990967,228.195374 
	C601.798645,229.282394 603.606323,230.369415 605.468262,231.765015 
	C604.255249,231.846237 602.987915,231.618912 601.663574,231.381363 
	C602.919678,234.439072 604.122864,237.367966 605.179932,240.589172 
z"/>
<path fill="#E46D15" opacity="1.000000" stroke="none" 
	d="
M599.717041,227.967804 
	C598.210083,228.540588 596.429199,228.885803 594.415344,229.448807 
	C593.576111,229.551620 592.969788,229.436630 591.939453,229.150024 
	C591.515320,228.978394 591.485840,228.930023 591.485840,228.930023 
	C591.200500,228.900558 590.915222,228.871109 590.244507,228.648132 
	C589.229187,227.687103 588.599365,226.919586 587.957947,225.880875 
	C588.760864,225.524475 589.575378,225.439301 590.989075,225.755280 
	C592.837830,226.370102 594.087402,226.583771 595.336975,226.797440 
	C596.705688,227.111694 598.074341,227.425949 599.717041,227.967804 
z"/>
<path fill="#F4901E" opacity="1.000000" stroke="none" 
	d="
M595.118652,226.536163 
	C594.087402,226.583771 592.837830,226.370102 591.359009,225.942627 
	C592.386536,225.910858 593.643433,226.092880 595.118652,226.536163 
z"/>
<path fill="#F4901E" opacity="1.000000" stroke="none" 
	d="
M591.458252,229.034790 
	C591.485840,228.930023 591.515320,228.978394 591.514709,228.960968 
	C591.514099,228.943527 591.430725,229.139542 591.458252,229.034790 
z"/>
</svg>